<?xml version="1.0" ?><svg style="enable-background:new 0 0 512 512;" version="1.1" viewBox="0 0 512 512" xml:space="preserve" xmlns="http://www.w3.org/2000/svg" xmlns:xlink="http://www.w3.org/1999/xlink"><g id="_x31_51_x2C__Twitter_x2C__Image_x2C__Picture_x2C__Camera"><g id="XMLID_5076_"><path d="M255,370c-55.14,0-100-44.859-100-100c0-55.14,44.86-100,100-100    c55.141,0,100,44.86,100,100C355,325.141,310.141,370,255,370z M255,190c-44.112,0-80,35.888-80,80s35.888,80,80,80    s80-35.888,80-80S299.112,190,255,190z" id="XMLID_8505_" style="fill:#F05026;"/></g><g id="XMLID_5077_"><path d="M400,210c-16.542,0-30-13.458-30-30s13.458-30,30-30s30,13.458,30,30    S416.542,210,400,210z M400,170c-5.514,0-10,4.486-10,10s4.486,10,10,10s10-4.486,10-10S405.514,170,400,170z" id="XMLID_8502_" style="fill:#F05026;"/></g><g id="XMLID_5078_"><path d="M422,428H88c-26.467,0-48-21.532-48-48V158c0-26.467,21.533-48,48-48h62V97.5    c0-20.678,16.822-37.5,37.5-37.5h135c20.678,0,37.5,16.822,37.5,37.5V110h62c26.468,0,48,21.533,48,48v222    C470,406.468,448.468,428,422,428z M88,130c-15.439,0-28,12.561-28,28v222c0,15.439,12.561,28,28,28h334c15.439,0,28-12.561,28-28    V158c0-15.439-12.561-28-28-28h-72c-5.522,0-10-4.477-10-10V97.5c0-9.649-7.851-17.5-17.5-17.5h-135    c-9.649,0-17.5,7.851-17.5,17.5V120c0,5.523-4.477,10-10,10H88z" id="XMLID_8499_" style="fill:#3E3C3C;"/></g></g><g id="Layer_1"/></svg>