<?xml version="1.0" encoding="iso-8859-1"?>
<!-- Uploaded to: SVG Repo, www.svgrepo.com, Generator: SVG Repo Mixer Tools -->
<svg version="1.1" id="Layer_1" xmlns="http://www.w3.org/2000/svg" xmlns:xlink="http://www.w3.org/1999/xlink" 
	 viewBox="0 0 512 512" xml:space="preserve">
<path style="fill:#1E0478;" d="M512,147.396v273.147c0,18.227-14.833,33.061-33.061,33.061H33.061
	C14.833,453.604,0,438.771,0,420.543V147.396c0-18.227,14.833-33.061,33.061-33.061h14.304v-14.69
	c0-11.858,9.643-21.489,21.489-21.489h31.716c11.847,0,21.489,9.632,21.489,21.489v14.69h45.811l13.764-37.502
	c4.044-11.02,14.657-18.437,26.415-18.437h95.898c11.759,0,22.371,7.417,26.415,18.437l13.764,37.502h134.811
	C497.167,114.335,512,129.168,512,147.396z M489.96,420.543v-28.3h-43.662c-6.083,0-11.02-4.926-11.02-11.02V186.716
	c0-6.083,4.937-11.02,11.02-11.02h43.662v-28.3c0-6.072-4.948-11.02-11.02-11.02H336.514c-0.022,0-0.044,0-0.077,0
	c-0.022,0-0.055,0-0.077,0H33.061c-6.072,0-11.02,4.948-11.02,11.02v28.3h43.662c6.083,0,11.02,4.937,11.02,11.02v194.507
	c0,6.094-4.937,11.02-11.02,11.02H22.04v28.3c0,6.083,4.948,11.02,11.02,11.02h445.879
	C485.011,431.563,489.96,426.626,489.96,420.543z M489.96,370.203V197.736h-32.642v172.467H489.96z M320.656,114.335L309.68,84.437
	c-0.882-2.391-3.185-4-5.731-4h-95.898c-2.546,0-4.849,1.609-5.731,4l-10.976,29.898H320.656z M101.122,114.335v-14.69
	c0-0.309-0.242-0.551-0.551-0.551H68.854c-0.309,0-0.551,0.242-0.551,0.551v14.69H101.122z M54.682,370.203V197.736H22.04v172.467
	H54.682z"/>
<path style="fill:#9B8CCC;" d="M489.96,392.243v28.3c0,6.083-4.948,11.02-11.02,11.02H33.061c-6.072,0-11.02-4.937-11.02-11.02
	v-28.3h43.662c6.083,0,11.02-4.926,11.02-11.02V186.716c0-6.083-4.937-11.02-11.02-11.02H22.04v-28.3
	c0-6.072,4.948-11.02,11.02-11.02H336.36c0.022,0,0.055,0,0.077,0c0.033,0,0.055,0,0.077,0h142.425c6.072,0,11.02,4.948,11.02,11.02
	v28.3h-43.662c-6.083,0-11.02,4.937-11.02,11.02v194.507c0,6.094,4.937,11.02,11.02,11.02H489.96z M387.504,283.969
	c0-72.513-58.991-131.504-131.504-131.504s-131.504,58.991-131.504,131.504S183.487,415.474,256,415.474
	S387.504,356.483,387.504,283.969z"/>
<rect x="457.318" y="197.736" style="fill:#94E7EF;" width="32.642" height="172.467"/>
<path style="fill:#1E0478;" d="M256,152.465c72.513,0,131.504,58.991,131.504,131.504S328.513,415.474,256,415.474
	s-131.504-58.991-131.504-131.504S183.487,152.465,256,152.465z M366.566,283.969c0-60.964-49.602-110.566-110.566-110.566
	s-110.566,49.602-110.566,110.566c0,60.975,49.602,110.566,110.566,110.566S366.566,344.944,366.566,283.969z"/>
<path style="fill:#94E7EF;" d="M256,173.403c60.964,0,110.566,49.602,110.566,110.566c0,60.975-49.602,110.566-110.566,110.566
	s-110.566-49.591-110.566-110.566C145.434,223.005,195.036,173.403,256,173.403z M338.057,283.969
	c0-45.238-36.808-82.057-82.057-82.057s-82.057,36.819-82.057,82.057c0,45.249,36.808,82.057,82.057,82.057
	S338.057,329.218,338.057,283.969z"/>
<path style="fill:#FFFFFF;" d="M309.68,84.437l10.976,29.898H191.344l10.976-29.898c0.882-2.391,3.185-4,5.731-4h95.898
	C306.495,80.437,308.798,82.046,309.68,84.437z"/>
<path style="fill:#1E0478;" d="M256,201.913c45.249,0,82.057,36.819,82.057,82.057c0,45.249-36.808,82.057-82.057,82.057
	s-82.057-36.808-82.057-82.057C173.943,238.731,210.751,201.913,256,201.913z M318.22,283.969c0-34.306-27.914-62.22-62.22-62.22
	s-62.22,27.914-62.22,62.22s27.914,62.22,62.22,62.22C290.306,346.19,318.22,318.275,318.22,283.969z"/>
<path style="fill:#FFFFFF;" d="M256,221.749c34.306,0,62.22,27.914,62.22,62.22s-27.914,62.22-62.22,62.22
	s-62.22-27.914-62.22-62.22S221.694,221.749,256,221.749z M265.918,253.344c0-5.477-4.441-9.918-9.918-9.918
	c-22.36,0-40.543,18.194-40.543,40.543c0,5.477,4.441,9.918,9.918,9.918c5.477,0,9.918-4.441,9.918-9.918
	c0-11.417,9.29-20.707,20.707-20.707C261.477,263.262,265.918,258.821,265.918,253.344z"/>
<path style="fill:#1E0478;" d="M256,243.426c5.477,0,9.918,4.441,9.918,9.918c0,5.477-4.441,9.918-9.918,9.918
	c-11.417,0-20.707,9.29-20.707,20.707c0,5.477-4.441,9.918-9.918,9.918c-5.477,0-9.918-4.441-9.918-9.918
	C215.457,261.62,233.64,243.426,256,243.426z"/>
<g>
	<path style="fill:#94E7EF;" d="M101.122,99.645v14.69H68.303v-14.69c0-0.309,0.242-0.551,0.551-0.551h31.716
		C100.879,99.094,101.122,99.336,101.122,99.645z"/>
	<rect x="22.04" y="197.736" style="fill:#94E7EF;" width="32.642" height="172.467"/>
</g>
</svg>